<mxfile host="app.diagrams.net" modified="2022-03-07T02:14:23.337Z" agent="5.0 (Macintosh; Intel Mac OS X 10_15_7) AppleWebKit/537.36 (KHTML, like Gecko) Chrome/99.0.4844.51 Safari/537.36" etag="2IZlauKWsre9A6QBxEOV" version="16.6.5" type="github">
  <diagram id="bVfz8s5Meh0udrbo1Hyq" name="Page-1">
    <mxGraphModel dx="946" dy="589" grid="0" gridSize="10" guides="1" tooltips="1" connect="1" arrows="1" fold="1" page="1" pageScale="1" pageWidth="827" pageHeight="1169" math="0" shadow="0">
      <root>
        <mxCell id="0" />
        <mxCell id="1" parent="0" />
        <mxCell id="1sGqdhWdhv_Fe9Wm-jh6-25" value="" style="rounded=0;whiteSpace=wrap;html=1;fillColor=#dae8fc;strokeColor=#6c8ebf;" vertex="1" parent="1">
          <mxGeometry x="116" y="78" width="533" height="253" as="geometry" />
        </mxCell>
        <mxCell id="1sGqdhWdhv_Fe9Wm-jh6-23" value="" style="rounded=0;whiteSpace=wrap;html=1;fillColor=#dae8fc;strokeColor=#6c8ebf;" vertex="1" parent="1">
          <mxGeometry x="136" y="104" width="533" height="253" as="geometry" />
        </mxCell>
        <mxCell id="1sGqdhWdhv_Fe9Wm-jh6-19" value="" style="rounded=0;whiteSpace=wrap;html=1;fillColor=#dae8fc;strokeColor=#6c8ebf;" vertex="1" parent="1">
          <mxGeometry x="157" y="132" width="533" height="253" as="geometry" />
        </mxCell>
        <mxCell id="1sGqdhWdhv_Fe9Wm-jh6-2" value="" style="rounded=1;whiteSpace=wrap;html=1;" vertex="1" parent="1">
          <mxGeometry x="195" y="159" width="485" height="153" as="geometry" />
        </mxCell>
        <mxCell id="1sGqdhWdhv_Fe9Wm-jh6-3" value="" style="rounded=1;whiteSpace=wrap;html=1;" vertex="1" parent="1">
          <mxGeometry x="195" y="324" width="431" height="44" as="geometry" />
        </mxCell>
        <mxCell id="1sGqdhWdhv_Fe9Wm-jh6-4" value="客户端状态" style="rounded=1;whiteSpace=wrap;html=1;fillColor=#d5e8d4;strokeColor=#82b366;" vertex="1" parent="1">
          <mxGeometry x="204" y="178" width="100" height="28" as="geometry" />
        </mxCell>
        <mxCell id="1sGqdhWdhv_Fe9Wm-jh6-5" value="ABR算法" style="rounded=1;whiteSpace=wrap;html=1;fillColor=#d5e8d4;strokeColor=#82b366;" vertex="1" parent="1">
          <mxGeometry x="204" y="221" width="100" height="28" as="geometry" />
        </mxCell>
        <mxCell id="1sGqdhWdhv_Fe9Wm-jh6-6" value="发送速率" style="rounded=1;whiteSpace=wrap;html=1;fillColor=#d5e8d4;strokeColor=#82b366;" vertex="1" parent="1">
          <mxGeometry x="204" y="264" width="100" height="28" as="geometry" />
        </mxCell>
        <mxCell id="1sGqdhWdhv_Fe9Wm-jh6-7" value="效用函数" style="rounded=1;whiteSpace=wrap;html=1;fillColor=#d5e8d4;strokeColor=#82b366;" vertex="1" parent="1">
          <mxGeometry x="378" y="221" width="99" height="28" as="geometry" />
        </mxCell>
        <mxCell id="1sGqdhWdhv_Fe9Wm-jh6-9" value="权重" style="rounded=1;whiteSpace=wrap;html=1;fillColor=#d5e8d4;strokeColor=#82b366;" vertex="1" parent="1">
          <mxGeometry x="535" y="221.5" width="99" height="28" as="geometry" />
        </mxCell>
        <mxCell id="1sGqdhWdhv_Fe9Wm-jh6-10" value="视频下载速率" style="rounded=1;whiteSpace=wrap;html=1;fillColor=#d5e8d4;strokeColor=#82b366;" vertex="1" parent="1">
          <mxGeometry x="312" y="332.5" width="188" height="27" as="geometry" />
        </mxCell>
        <mxCell id="1sGqdhWdhv_Fe9Wm-jh6-11" value="" style="shape=curlyBracket;whiteSpace=wrap;html=1;rounded=1;flipH=1;" vertex="1" parent="1">
          <mxGeometry x="306" y="186" width="20" height="95" as="geometry" />
        </mxCell>
        <mxCell id="1sGqdhWdhv_Fe9Wm-jh6-12" value="" style="endArrow=classic;startArrow=none;html=1;rounded=0;startFill=0;entryX=0;entryY=0.5;entryDx=0;entryDy=0;strokeWidth=1;shape=flexArrow;endSize=6;fillColor=#d5e8d4;strokeColor=#82b366;" edge="1" parent="1" target="1sGqdhWdhv_Fe9Wm-jh6-7">
          <mxGeometry width="100" height="100" relative="1" as="geometry">
            <mxPoint x="324" y="234.5" as="sourcePoint" />
            <mxPoint x="366" y="237" as="targetPoint" />
          </mxGeometry>
        </mxCell>
        <mxCell id="1sGqdhWdhv_Fe9Wm-jh6-16" value="" style="endArrow=classic;startArrow=none;html=1;rounded=0;startFill=0;entryX=0;entryY=0.5;entryDx=0;entryDy=0;strokeWidth=1;shape=flexArrow;endSize=6;exitX=1;exitY=0.5;exitDx=0;exitDy=0;fillColor=#d5e8d4;strokeColor=#82b366;" edge="1" parent="1" source="1sGqdhWdhv_Fe9Wm-jh6-7" target="1sGqdhWdhv_Fe9Wm-jh6-9">
          <mxGeometry width="100" height="100" relative="1" as="geometry">
            <mxPoint x="479" y="237" as="sourcePoint" />
            <mxPoint x="533" y="237.5" as="targetPoint" />
          </mxGeometry>
        </mxCell>
        <mxCell id="1sGqdhWdhv_Fe9Wm-jh6-18" value="" style="endArrow=classic;startArrow=none;html=1;rounded=0;startFill=0;strokeWidth=1;shape=flexArrow;endSize=6;entryX=1;entryY=0.75;entryDx=0;entryDy=0;fillColor=#d5e8d4;strokeColor=#82b366;" edge="1" parent="1" target="1sGqdhWdhv_Fe9Wm-jh6-10">
          <mxGeometry width="100" height="100" relative="1" as="geometry">
            <mxPoint x="581" y="254" as="sourcePoint" />
            <mxPoint x="639" y="250" as="targetPoint" />
          </mxGeometry>
        </mxCell>
        <mxCell id="1sGqdhWdhv_Fe9Wm-jh6-22" value="&lt;font style=&quot;font-size: 14px&quot;&gt;video stream 1&lt;/font&gt;" style="text;html=1;strokeColor=none;fillColor=none;align=center;verticalAlign=middle;whiteSpace=wrap;rounded=0;fontColor=#CC99FF;" vertex="1" parent="1">
          <mxGeometry x="154" y="132" width="108" height="30" as="geometry" />
        </mxCell>
        <mxCell id="1sGqdhWdhv_Fe9Wm-jh6-24" value="&lt;font style=&quot;font-size: 14px&quot;&gt;video stream 2&lt;/font&gt;" style="text;html=1;strokeColor=none;fillColor=none;align=center;verticalAlign=middle;whiteSpace=wrap;rounded=0;fontColor=#CC99FF;" vertex="1" parent="1">
          <mxGeometry x="134" y="104" width="108" height="30" as="geometry" />
        </mxCell>
        <mxCell id="1sGqdhWdhv_Fe9Wm-jh6-26" value="&lt;font style=&quot;font-size: 14px&quot;&gt;video stream 3&lt;/font&gt;" style="text;html=1;strokeColor=none;fillColor=none;align=center;verticalAlign=middle;whiteSpace=wrap;rounded=0;fontColor=#CC99FF;" vertex="1" parent="1">
          <mxGeometry x="113" y="78" width="108" height="30" as="geometry" />
        </mxCell>
        <mxCell id="1sGqdhWdhv_Fe9Wm-jh6-27" value="Cubic算法" style="text;html=1;strokeColor=none;fillColor=none;align=center;verticalAlign=middle;whiteSpace=wrap;rounded=0;fontSize=14;fontColor=#CC99FF;" vertex="1" parent="1">
          <mxGeometry x="197" y="332.5" width="89" height="30" as="geometry" />
        </mxCell>
      </root>
    </mxGraphModel>
  </diagram>
</mxfile>
